<svg width="613" height="344" viewBox="0 0 613 344" fill="none" xmlns="http://www.w3.org/2000/svg">
<path d="M-16.2289 -27.3491C43.6153 -26.5711 102.263 -10.8028 161.857 -4.00792C221.702 2.76103 280.549 -10.1544 339.961 -20.4505C385.891 25.7651 422.961 113.139 476.472 129.763C508.754 139.8 518.429 191.176 536.133 229.923C556.48 274.427 586.685 307.779 613 343.517H-415.988C-349.362 281.706 -282.735 219.895 -216.109 158.084C-183.111 127.299 -151.543 99.5752 -123.666 57.6129C-110.284 37.4876 -98.1656 15.2875 -81.509 1.49022C-61.2451 -15.2895 -38.0055 -16.7418 -16.2289 -27.3491Z" stroke="white" stroke-opacity="0.53" stroke-miterlimit="10"/>
<path d="M-374.578 305.107H584.741" stroke="white" stroke-opacity="0.53" stroke-miterlimit="10"/>
<path d="M-338.422 271.547H560.023" stroke="white" stroke-opacity="0.53" stroke-miterlimit="10"/>
<path d="M-306.59 242.008C-229.856 242.008 -155.766 246.754 -79.5309 259.799C-11.641 271.418 49.2172 260.344 115.844 240.581C180.376 221.416 245.789 225.021 311.219 221.001C387.016 216.058 462.945 220.603 538.277 234.591" stroke="white" stroke-opacity="0.53" stroke-miterlimit="10"/>
<path d="M-278.328 215.814C-242.388 215.814 -206.149 212.779 -170.658 223.127C-134.536 233.657 -99.8594 253.367 -64.0858 266.153C7.69397 291.802 55.7189 255.572 120.317 210.186C177.469 170.065 234.238 172.918 295.495 164.204C375.52 152.818 440.933 152.689 518.996 187.182" stroke="white" stroke-opacity="0.53" stroke-miterlimit="10"/>
<path d="M-253.078 192.369C-215.958 192.369 -182.246 194.055 -146.339 211.12C-114.107 226.473 -83.0541 247.843 -50.2229 260.162C18.9305 286.097 66.2573 231.349 124.323 181.554C177.218 136.169 231.361 140.941 289.742 130.619C365.545 117.236 428.232 109.171 501.724 148.099" stroke="white" stroke-opacity="0.53" stroke-miterlimit="10"/>
<path d="M-230.387 171.336C-163.378 171.881 -103.301 210.86 -37.8379 225.41C23.9346 239.103 72.292 195.377 127.914 161.196C179.313 129.633 230.248 132.097 284.49 125.172C353.576 116.303 417.876 107.018 486.231 131.656" stroke="white" stroke-opacity="0.53" stroke-miterlimit="10"/>
<path d="M-209.859 152.274C-148.203 154.868 -88.0598 177.405 -26.5532 181.58C28.1544 185.289 78.2573 162.44 131.186 145.272C180.308 129.452 229.879 132.486 279.766 129.062C344.099 124.68 408.016 118.17 472.232 128.803" stroke="white" stroke-opacity="0.53" stroke-miterlimit="10"/>
<path d="M-191.254 134.716C-81.9052 136.946 24.8502 142.496 134.116 132.122C241.636 122.112 351.882 124.627 459.502 127.947" stroke="white" stroke-opacity="0.53" stroke-miterlimit="10"/>
<path d="M-174.285 119.362C33.1083 119.207 240.502 119.207 447.895 119.362" stroke="white" stroke-opacity="0.53" stroke-miterlimit="10"/>
<path d="M-158.723 104.295C-59.3813 99.886 39.9103 98.304 139.285 96.2292C238.66 94.1544 337.835 104.917 437.276 104.917" stroke="white" stroke-opacity="0.53" stroke-miterlimit="10"/>
<path d="M-144.43 87.3596C-49.1943 75.4556 46.0578 71.7988 141.493 66.9231C237.908 61.9955 331.432 91.7425 427.415 91.5869" stroke="white" stroke-opacity="0.53" stroke-miterlimit="10"/>
<path d="M-131.23 69.0239C-40.0013 49.7025 51.7266 44.9306 143.637 37.0983C238.291 29.0326 324.832 77.0118 418.505 79.3459" stroke="white" stroke-opacity="0.53" stroke-miterlimit="10"/>
<path d="M-119.027 50.4547C-31.8709 25.5574 57.1806 20.1371 145.567 10.3597C187.608 5.7174 226.623 6.46951 267.949 21.9525C315.575 39.8215 360.923 63.2405 410.162 68.0384" stroke="white" stroke-opacity="0.53" stroke-miterlimit="10"/>
<path d="M-107.703 32.8711C-24.4532 4.93948 62.5038 0.167515 147.366 -10.9585C186.681 -16.1454 222.454 -16.2751 260.738 -0.247428C308.414 19.7223 352.948 48.406 402.436 57.1459" stroke="white" stroke-opacity="0.53" stroke-miterlimit="10"/>
<path d="M-97.168 17.5434C-17.5918 -10.6216 67.6197 -14.7712 149.041 -25.7415C184.582 -30.5395 218.859 -31.8103 253.769 -17.4684C301.744 2.29384 345.779 35.1531 395.284 46.7459" stroke="white" stroke-opacity="0.53" stroke-miterlimit="10"/>
<path d="M-87.3438 5.87272C-10.178 -18.9468 71.9582 -22.2145 150.587 -32.1734C237.028 -43.1438 305.317 12.5379 388.517 36.1644" stroke="white" stroke-opacity="0.53" stroke-miterlimit="10"/>
<path d="M-78.1484 -2.32241C-2.97746 -22.6293 75.8507 -24.5743 152.052 -32.1991C234.188 -40.3167 302.743 3.77226 382.236 26.3873" stroke="white" stroke-opacity="0.53" stroke-miterlimit="10"/>
<path d="M-69.5391 -7.84669C3.73686 -23.4075 79.4897 -23.4075 153.414 -28.3351C231.278 -33.522 300.232 -1.10362 376.367 17.9843" stroke="white" stroke-opacity="0.53" stroke-miterlimit="10"/>
<path d="M-61.4453 -11.4512C10.0353 -22.6809 82.9122 -20.3728 154.659 -22.5254C228.55 -24.7298 297.786 -3.41147 370.763 10.9045" stroke="white" stroke-opacity="0.53" stroke-miterlimit="10"/>
<path d="M-53.8477 -13.7856C86.0216 -28.4906 226.423 -13.2669 365.644 5.01702" stroke="white" stroke-opacity="0.53" stroke-miterlimit="10"/>
<path d="M-46.668 -15.4196C88.4636 -23.7446 225.69 -8.49506 360.738 0.141183" stroke="white" stroke-opacity="0.53" stroke-miterlimit="10"/>
<path d="M-33.5 -18.4537C30.9988 -18.5834 94.7993 -7.63892 159.115 -2.06296C223.431 3.51299 287.697 -4.42305 351.747 -8.26139" stroke="white" stroke-opacity="0.53" stroke-miterlimit="10"/>
<path d="M-27.4492 -20.6062C35.4703 -19.9319 97.4257 -7.04236 160.079 -0.662435C222.733 5.71749 285.237 -5.38255 347.608 -12.1774" stroke="white" stroke-opacity="0.53" stroke-miterlimit="10"/>
<path d="M-21.6953 -23.5371C39.6949 -22.6035 99.8882 -8.15788 160.996 -1.363C222.103 5.43189 282.845 -7.25012 343.687 -16.2235" stroke="white" stroke-opacity="0.53" stroke-miterlimit="10"/>
<path d="M326.246 -18.2725C352.844 6.80637 371.462 35.3864 392.623 70.7094C400.603 84.0398 409.097 100.612 418.639 111.271C433.268 127.61 432.569 120.789 449.841 123.253C481.06 127.662 486.762 171.855 500.359 212.209C518.296 265.479 546.007 302.384 573.502 343.516" stroke="white" stroke-opacity="0.53" stroke-miterlimit="10"/>
<path d="M312.551 -15.8086C337.569 5.4319 351.715 24.027 368.838 60.3096C376.351 76.2076 383.898 95.9179 393.64 108.859C407.919 127.818 407.936 115.991 423.196 120.089C438.057 124.057 433.286 110.286 446.801 131.163C459.701 151.107 463.873 188.972 471.271 214.154C486.681 266.542 508.873 301.684 533.841 343.542" stroke="white" stroke-opacity="0.53" stroke-miterlimit="10"/>
<path d="M298.816 -13.3188C326.577 7.01394 335.055 18.1918 351.346 61.5027C357.827 80.9547 365.546 99.3399 374.386 116.38C381.246 130.091 388.627 131.068 396.529 119.311C404.763 106.638 412.144 108.168 418.671 123.902C427.649 156.104 435.366 189.128 441.778 222.79C453.83 271.107 473.512 304.044 494.307 343.516" stroke="white" stroke-opacity="0.53" stroke-miterlimit="10"/>
<path d="M285.152 -10.855C293.432 -6.27436 301.962 -2.88017 310.636 -0.714514C320.779 18.4778 328.521 40.4712 333.46 64.1222C338.621 85.497 345.744 105.59 354.605 123.772C360.611 128.233 365.72 127.014 369.932 120.115C374.099 113.476 379.202 111.851 385.242 115.239C395.403 143.744 402.544 174.624 406.387 206.685C417.342 261.641 433.633 297.327 454.694 343.387" stroke="white" stroke-opacity="0.53" stroke-miterlimit="10"/>
<path d="M271.457 -8.49463C279.065 -6.46949 286.806 -5.95536 294.497 -6.96449C304.004 16.6261 310.936 42.5149 315.01 69.6465C318.235 82.6657 321.449 95.6849 324.652 108.704C328.11 128.726 334.321 133.23 343.287 122.216C349.936 111.393 354.585 112.56 357.234 125.717C366.631 144.179 371.689 167.109 371.563 190.684C381.836 250.333 394.952 291.466 415.116 343.517" stroke="white" stroke-opacity="0.53" stroke-miterlimit="10"/>
<path d="M257.758 -6.34247C264.498 -5.96022 271.132 -9.0398 276.642 -15.1084C287.414 21.0705 288.278 75.0405 301.361 107.614C323.121 161.61 310.903 97.474 324.235 119.518C343.235 150.925 339.977 212.546 348.039 250.696C354.855 282.985 365.91 313.199 375.535 343.516" stroke="white" stroke-opacity="0.53" stroke-miterlimit="10"/>
<path d="M244.062 -4.50102C250.149 -8.15423 255.571 -14.0752 259.855 -21.7476C265.224 6.78058 268.166 99.0043 280.418 119.207C288.081 131.915 291.073 119.207 296.41 128.544C308.279 149.292 309.941 219.575 313.033 239.829C318.436 275.619 327.529 309.309 336.006 343.568" stroke="white" stroke-opacity="0.53" stroke-miterlimit="10"/>
<path d="M230.359 -3.02288C234.648 -10.8033 238.671 -18.5837 242.578 -26.9087C246.866 12.901 242.91 77.5561 255.876 109.222C253.726 121.74 255.389 128.207 260.863 128.622C263.317 129.473 265.815 129.976 268.327 130.126C277.005 157.513 275.791 197.556 278.617 226.888C282.507 267.242 289.406 304.381 296.371 343.594" stroke="white" stroke-opacity="0.53" stroke-miterlimit="10"/>
<path d="M216.664 -2.01147C219.576 -11.8533 222.059 -21.9909 224.095 -32.355C232.406 96.281 242.863 214.699 256.81 343.516" stroke="white" stroke-opacity="0.53" stroke-miterlimit="10"/>
<path d="M202.949 -1.41457C204.057 -12.5665 204.944 -23.7616 205.609 -35C208.501 91.6649 212.358 216.955 217.245 343.646" stroke="white" stroke-opacity="0.53" stroke-miterlimit="10"/>
<path d="M189.254 -1.80357C188.357 -12.7826 187.642 -23.7789 187.11 -34.7925C184.75 91.4834 181.608 217.267 177.668 343.517" stroke="white" stroke-opacity="0.53" stroke-miterlimit="10"/>
<path d="M175.555 -2.71132C172.764 -12.6319 170.447 -22.8607 168.623 -33.3142C160.943 93.247 150.869 217.682 138.086 343.517" stroke="white" stroke-opacity="0.53" stroke-miterlimit="10"/>
<path d="M161.86 -4.00827C157.46 -12.4772 153.534 -21.5182 150.123 -31.0322C137.028 95.1101 119.8 220.123 98.5078 343.516" stroke="white" stroke-opacity="0.53" stroke-miterlimit="10"/>
<path d="M148.16 -5.8755C141.525 -11.2834 136.154 -19.8251 132.817 -30.28C118.87 44.6971 112.37 121.386 97.3424 196.207C87.2354 246.547 70.878 293.851 58.9258 343.516" stroke="white" stroke-opacity="0.53" stroke-miterlimit="10"/>
<path d="M134.463 -7.97623C130.581 -8.82936 126.882 -11.0987 123.667 -14.6C120.453 -18.1013 117.812 -22.7358 115.961 -28.1274C92.6882 44.8008 85.8726 138.632 69.4155 217.033C58.3111 269.914 59.3583 234.72 46.1427 262.834C34.8887 286.745 27.458 317.063 19.2461 343.516" stroke="white" stroke-opacity="0.53" stroke-miterlimit="10"/>
<path d="M120.766 -10.3101C116.528 -10.3171 112.335 -11.6784 108.447 -14.31C104.559 -16.9417 101.057 -20.7879 98.1584 -25.6116C68.868 51.3625 61.4041 152.871 41.1568 236.666C24.8825 304.096 35.1724 250.645 12.6643 263.923C1.89234 270.277 -15.4292 330.809 -20.25 343.517" stroke="white" stroke-opacity="0.53" stroke-miterlimit="10"/>
<path d="M107.069 -12.8003C102.642 -11.4875 98.0817 -11.7676 93.7348 -13.6192C89.3879 -15.4708 85.369 -18.8451 81.984 -23.4854C68.918 -6.47221 61.432 15.8317 59.5258 43.4261C48.2219 94.31 34.5907 142.886 23.6359 194.003C19.336 218.641 14.3047 242.924 8.5419 266.853C2.08094 282.916 -4.85103 283.581 -12.254 268.85C-23.3362 259.548 -30.8278 265.859 -34.7288 287.783L-59.7969 343.516" stroke="white" stroke-opacity="0.53" stroke-miterlimit="10"/>
<path d="M93.3693 -15.3416C88.8202 -13.0948 84.0039 -12.4854 79.2821 -13.5589C74.5603 -14.6325 70.0559 -17.3611 66.107 -21.54C52.232 -10.8722 44.0533 7.16963 41.5708 32.5856C26.6098 87.4115 9.32143 140.629 -3.01313 196.96C-6.6222 225.039 -14.0666 251.576 -24.8396 274.764C-28.9009 275.565 -33.0247 275.023 -36.9428 273.173C-40.8609 271.323 -44.4854 268.207 -47.5804 264.027C-69.889 267.346 -86.1467 318.023 -99.3789 343.465" stroke="white" stroke-opacity="0.53" stroke-miterlimit="10"/>
<path d="M79.6552 -17.8313C65.2594 -7.79458 56.5986 -23.9001 43.7155 -14.797C29.7684 -4.91588 24.2495 25.0387 17.8827 45.2677C1.87436 95.7625 -15.3641 143.379 -29.6104 195.118C-35.6613 217.007 -40.4654 261.77 -58.8176 267.217C-66.2982 269.421 -75.6073 257.543 -83.3205 259.722C-103.784 265.557 -125.71 321.109 -138.926 343.516" stroke="white" stroke-opacity="0.53" stroke-miterlimit="10"/>
<path d="M65.9568 -20.2432C51.8768 -9.24686 41.3375 -21.9289 27.856 -15.0562C9.71984 -5.77162 2.02323 30.511 -6.30509 55.1749C-22.0474 101.65 -41.0147 144.053 -56.2916 191.047C-63.4896 213.221 -71.0865 243.435 -87.1446 251.786C-95.6724 256.22 -104.2 251.786 -112.878 255.416C-138.112 266.179 -159.905 315.248 -178.523 343.594" stroke="white" stroke-opacity="0.53" stroke-miterlimit="10"/>
<path d="M52.2613 -22.4219C35.7542 -8.80617 20.893 -25.3525 4.6519 -12.5408C-8.34759 -2.1669 -16.9585 27.2171 -23.8572 45.4751C-41.9933 93.4801 -63.0552 137.854 -82.9201 184.096C-105.129 235.81 -117.829 227.459 -148.982 252.641C-174.498 273.207 -196.724 314.184 -218.102 343.413" stroke="white" stroke-opacity="0.53" stroke-miterlimit="10"/>
<path d="M38.5619 -24.3152C21.9385 -11.7887 4.73328 -24.7561 -11.1587 -13.6042C-28.979 -1.10372 -38.0221 32.4558 -48.1624 56.1082C-66.5977 99.0041 -88.2746 137.699 -109.553 177.301C-129.733 214.854 -152.275 221.001 -178.074 244.964C-206.334 271.21 -232.034 311.409 -257.684 343.516" stroke="white" stroke-opacity="0.53" stroke-miterlimit="10"/>
<path d="M24.8625 -25.8193C8.05626 -17.7018 -10.9277 -23.2259 -26.7864 -13.241C-44.7396 -1.80381 -54.3812 27.6839 -65.3859 50.4545C-86.614 94.5435 -110.003 132.538 -136.202 169.495C-159.341 202.12 -189.064 219.886 -214.448 248.155C-242.342 279.276 -269.671 311.746 -297.266 343.516" stroke="white" stroke-opacity="0.53" stroke-miterlimit="10"/>
<path d="M11.2324 -26.8826C-6.25544 -18.1945 -25.3391 -21.6956 -42.1786 -11.5552C-63.1573 1.23062 -76.4394 36.5018 -89.9542 62.1512C-110.551 101.313 -136.2 134.509 -162.765 163.659C-219.434 225.903 -279.411 282.388 -336.762 343.516" stroke="white" stroke-opacity="0.53" stroke-miterlimit="10"/>
</svg>
