<svg width="8" height="15" viewBox="0 0 8 15" fill="none" xmlns="http://www.w3.org/2000/svg">
<path d="M5.31372 7.57098L0.36372 2.62098C0.181562 2.43238 0.0807672 2.17978 0.0830456 1.91758C0.085324 1.65538 0.190493 1.40457 0.375901 1.21916C0.561309 1.03375 0.812122 0.928586 1.07432 0.926307C1.33652 0.924029 1.58912 1.02482 1.77772 1.20698L7.43472 6.86398C7.62219 7.05151 7.72751 7.30582 7.72751 7.57098C7.72751 7.83615 7.62219 8.09045 7.43472 8.27798L1.77772 13.935C1.58912 14.1171 1.33652 14.2179 1.07432 14.2157C0.812122 14.2134 0.561309 14.1082 0.375901 13.9228C0.190493 13.7374 0.085324 13.4866 0.0830456 13.2244C0.0807672 12.9622 0.181562 12.7096 0.36372 12.521L5.31372 7.57098Z" fill="#475569"/>
</svg>
