<svg width="570" height="521" viewBox="0 0 570 521" fill="none" xmlns="http://www.w3.org/2000/svg">
<path d="M272.618 145.569L272.133 142.771L274.882 142.277L275.367 145.075L272.618 145.569Z" fill="#00AA8B"/>
<path d="M117.8 3.29222L117.314 0.493896L120.063 -2.72345e-05L120.549 2.7983L117.8 3.29222Z" fill="#00AA8B"/>
<path d="M332.513 157.088L332.027 154.289L334.776 153.796L335.261 156.594L332.513 157.088Z" fill="#00AA8B"/>
<path d="M177.694 14.8108L177.209 12.0125L179.958 11.5185L180.443 14.3169L177.694 14.8108Z" fill="#00AA8B"/>
<path d="M387.377 202.371L386.892 199.573L389.64 199.079L390.126 201.877L387.377 202.371Z" fill="#00AA8B"/>
<path d="M232.558 60.0944L232.073 57.2961L234.822 56.8022L235.307 59.6005L232.558 60.0944Z" fill="#00AA8B"/>
<path d="M357.453 300.758L356.968 297.959L359.717 297.466L360.202 300.264L357.453 300.758Z" fill="#00AA8B"/>
<path d="M202.635 158.481L202.149 155.682L204.898 155.189L205.383 157.987L202.635 158.481Z" fill="#00AA8B"/>
<path d="M343.088 217.877L342.603 215.079L345.351 214.585L345.837 217.383L343.088 217.877Z" fill="#00AA8B"/>
<path d="M188.269 75.6001L187.784 72.8018L190.533 72.3079L191.018 75.1062L188.269 75.6001Z" fill="#00AA8B"/>
<path d="M567.191 375.078L566.706 372.28L569.455 371.786L569.94 374.584L567.191 375.078Z" fill="#00AA8B"/>
<path d="M306.844 175.91L306.358 173.112L309.107 172.618L309.592 175.416L306.844 175.91Z" fill="#00AA8B"/>
<path d="M152.025 33.6329L151.54 30.8345L154.289 30.3406L154.774 33.1389L152.025 33.6329Z" fill="#00AA8B"/>
<path d="M271.325 241.891L270.84 239.093L273.589 238.599L274.074 241.397L271.325 241.891Z" fill="#00AA8B"/>
<path d="M116.507 99.614L116.021 96.8157L118.77 96.3218L119.256 99.1201L116.507 99.614Z" fill="#00AA8B"/>
<path d="M449.191 521L448.706 518.202L451.455 517.708L451.94 520.506L449.191 521Z" fill="#00AA8B"/>
<path d="M331.223 253.409L330.738 250.611L333.487 250.117L333.972 252.915L331.223 253.409Z" fill="#00AA8B"/>
<path d="M176.405 111.132L175.92 108.334L178.669 107.84L179.154 110.638L176.405 111.132Z" fill="#00AA8B"/>
<path d="M192.874 189.286L192.389 186.487L195.138 185.993L195.623 188.792L192.874 189.286Z" fill="#00AA8B"/>
<path d="M38.0565 47.0086L37.5713 44.2103L40.3202 43.7164L40.8054 46.5147L38.0565 47.0086Z" fill="#00AA8B"/>
<path d="M203.43 250.095L202.944 247.296L205.693 246.802L206.178 249.601L203.43 250.095Z" fill="#00AA8B"/>
<path d="M48.6112 107.817L48.126 105.019L50.8748 104.525L51.36 107.324L48.6112 107.817Z" fill="#00AA8B"/>
<path d="M244.618 183.746L244.133 180.948L246.882 180.454L247.367 183.253L244.618 183.746Z" fill="#00AA8B"/>
<path d="M89.7996 41.4695L89.3145 38.6711L92.0633 38.1772L92.5485 40.9755L89.7996 41.4695Z" fill="#00AA8B"/>
<path d="M167.185 208.108L166.7 205.309L169.449 204.815L169.934 207.614L167.185 208.108Z" fill="#00AA8B"/>
<path d="M12.367 65.8306L11.8818 63.0323L14.6307 62.5384L15.1159 65.3367L12.367 65.8306Z" fill="#00AA8B"/>
<path d="M131.647 274.168L131.162 271.37L133.911 270.876L134.396 273.674L131.647 274.168Z" fill="#00AA8B"/>
<path d="M191.585 285.627L191.1 282.829L193.848 282.335L194.334 285.133L191.585 285.627Z" fill="#00AA8B"/>
<path d="M36.7664 143.35L36.2812 140.552L39.0301 140.058L39.5153 142.856L36.7664 143.35Z" fill="#00AA8B"/>
<path d="M276.97 339.023L276.484 336.225L279.233 335.731L279.718 338.529L276.97 339.023Z" fill="#00AA8B"/>
<path d="M122.151 196.746L121.666 193.948L124.415 193.454L124.9 196.252L122.151 196.746Z" fill="#00AA8B"/>
<path d="M241.451 404.984L240.966 402.186L243.715 401.692L244.2 404.49L241.451 404.984Z" fill="#00AA8B"/>
<path d="M86.6327 262.707L86.1475 259.909L88.8963 259.415L89.3815 262.213L86.6327 262.707Z" fill="#00AA8B"/>
<path d="M232.684 313.887L232.199 311.089L234.948 310.595L235.433 313.393L232.684 313.887Z" fill="#00AA8B"/>
<path d="M77.8661 171.61L77.3809 168.812L80.1297 168.318L80.6149 171.116L77.8661 171.61Z" fill="#00AA8B"/>
<path d="M113.304 381.663L112.818 378.865L115.567 378.371L116.052 381.169L113.304 381.663Z" fill="#00AA8B"/>
</svg>
